<?xml version="1.0" standalone="no"?>
<!DOCTYPE svg PUBLIC "-//W3C//DTD SVG 20010904//EN"
 "http://www.w3.org/TR/2001/REC-SVG-20010904/DTD/svg10.dtd">
<svg version="1.0" xmlns="http://www.w3.org/2000/svg"
 width="808.000000pt" height="808.000000pt" viewBox="0 0 808.000000 808.000000"
 preserveAspectRatio="xMidYMid meet">
<metadata>
Created by potrace 1.14, written by Peter Selinger 2001-2017
</metadata>
<g transform="translate(0.000000,808.000000) scale(0.100000,-0.100000)"
fill="#000000" stroke="none">
<path d="M3926 7563 c-4 -4 -46 -9 -94 -10 -150 -5 -162 -6 -162 -16 0 -5 -6
-7 -14 -4 -7 3 -19 0 -26 -6 -10 -9 -11 -9 -5 3 7 12 6 13 -6 3 -8 -7 -27 -10
-42 -7 -15 2 -27 1 -27 -4 0 -8 -17 -10 -87 -14 -18 -1 -33 -6 -33 -10 0 -5
-9 -7 -19 -3 -11 3 -22 2 -25 -3 -3 -5 -21 -8 -41 -7 -19 1 -38 -2 -41 -6 -2
-4 -12 -5 -21 -2 -10 4 -14 2 -10 -4 4 -6 -4 -11 -21 -12 -52 -2 -72 -5 -72
-13 0 -4 -9 -5 -20 -3 -11 2 -20 0 -20 -5 0 -5 -7 -6 -17 -3 -11 4 -14 3 -9
-5 5 -8 2 -10 -8 -6 -10 4 -16 1 -16 -7 0 -7 -3 -9 -7 -6 -3 4 -13 1 -21 -6
-13 -9 -14 -9 -8 0 5 9 2 11 -8 7 -9 -3 -13 -10 -10 -15 3 -5 -2 -6 -10 -3 -9
3 -16 1 -16 -6 0 -7 -8 -9 -20 -5 -11 3 -20 2 -20 -3 0 -6 -7 -13 -16 -16 -10
-4 -13 -2 -8 7 6 9 5 9 -8 0 -8 -7 -18 -10 -21 -6 -4 3 -7 1 -7 -6 0 -7 -4 -9
-10 -6 -5 3 -10 1 -10 -6 0 -7 -3 -9 -7 -6 -3 4 -15 -1 -26 -10 -15 -13 -18
-14 -12 -3 8 13 7 13 -8 1 -9 -7 -17 -10 -17 -5 0 5 -4 3 -9 -4 -4 -7 -18 -14
-29 -15 -12 -1 -22 -5 -22 -10 0 -4 -4 -5 -10 -2 -5 3 -10 2 -10 -4 0 -6 -7
-8 -15 -5 -8 4 -15 1 -15 -5 0 -6 -9 -11 -20 -11 -11 0 -20 -5 -20 -11 0 -6
-6 -9 -12 -6 -7 2 -24 -5 -37 -17 -13 -11 -21 -14 -16 -6 5 8 -3 4 -18 -9 -14
-12 -30 -20 -35 -17 -6 3 -13 -1 -16 -10 -3 -9 -12 -14 -19 -11 -6 2 -23 -5
-36 -17 -13 -11 -21 -15 -16 -7 5 9 -1 7 -19 -4 -14 -10 -26 -21 -26 -26 0 -5
-7 -5 -17 -2 -11 4 -14 3 -9 -5 6 -11 -5 -17 -26 -13 -5 0 -8 -4 -8 -10 0 -5
-4 -8 -9 -5 -5 3 -11 -1 -15 -9 -3 -8 -12 -15 -21 -15 -8 0 -15 -5 -15 -12 0
-6 -3 -8 -7 -5 -3 4 -12 -1 -20 -11 -10 -11 -12 -12 -8 -2 4 10 2 9 -8 -2 -8
-10 -17 -15 -20 -11 -4 3 -7 -1 -7 -11 0 -9 -4 -15 -8 -12 -5 3 -19 -4 -30
-15 -12 -11 -22 -16 -22 -12 0 4 -7 -2 -16 -13 -8 -10 -13 -12 -9 -4 4 10 2 9
-8 -2 -8 -10 -17 -15 -20 -11 -4 3 -7 -1 -7 -11 0 -9 -4 -15 -9 -11 -6 3 -20
-5 -32 -17 -12 -13 -18 -17 -14 -10 6 11 3 12 -14 3 -11 -7 -21 -14 -21 -17 0
-3 6 -2 13 2 7 4 9 3 4 -2 -5 -5 -13 -10 -18 -10 -5 -1 -13 -2 -19 -3 -5 0
-10 -8 -10 -18 0 -9 -3 -13 -6 -10 -4 4 -18 -6 -32 -21 -13 -15 -21 -20 -16
-12 5 10 0 8 -14 -4 -24 -21 -29 -32 -10 -20 7 4 8 3 4 -4 -4 -7 -13 -12 -21
-12 -8 0 -17 -5 -21 -12 -5 -7 -2 -9 7 -4 8 4 5 1 -5 -8 -10 -8 -23 -13 -27
-10 -5 3 -14 -6 -20 -20 -7 -14 -15 -23 -20 -21 -4 3 -10 -4 -14 -15 -4 -11
-10 -18 -14 -16 -4 3 -14 -4 -21 -15 -8 -10 -20 -19 -27 -19 -8 0 -18 -11 -23
-25 -5 -14 -12 -25 -15 -25 -4 0 -3 6 1 13 5 8 3 8 -9 -2 -9 -7 -15 -17 -12
-21 3 -4 -3 -14 -12 -21 -14 -12 -16 -12 -8 1 5 9 0 8 -13 -4 -24 -21 -29 -31
-9 -20 6 4 9 4 5 -1 -4 -4 -18 -13 -30 -20 -13 -6 -22 -19 -22 -28 1 -9 -2
-14 -7 -11 -5 3 -9 -2 -9 -11 0 -9 -4 -13 -10 -10 -5 3 -10 -1 -10 -10 0 -9
-4 -14 -8 -11 -5 3 -15 -6 -22 -19 -7 -13 -16 -23 -20 -20 -3 2 -12 -5 -19
-17 -9 -15 -10 -18 0 -13 8 5 10 4 5 -3 -4 -7 -13 -12 -20 -12 -7 0 -21 -10
-32 -22 -13 -14 -14 -19 -4 -14 8 4 1 -5 -15 -21 -17 -15 -26 -26 -20 -23 6 3
-1 -6 -16 -20 -36 -34 -108 -127 -89 -115 9 6 4 -1 -10 -14 -14 -13 -19 -20
-12 -16 11 6 11 3 1 -13 -7 -12 -15 -19 -17 -17 -3 2 -15 -12 -29 -32 -13 -19
-22 -38 -19 -40 3 -3 -5 -14 -17 -25 -12 -11 -15 -17 -7 -13 8 4 6 -2 -6 -12
-11 -10 -18 -25 -16 -32 3 -8 0 -11 -6 -7 -10 6 -28 -30 -24 -46 1 -5 -5 -8
-14 -8 -8 0 -12 -4 -9 -10 3 -5 1 -10 -5 -10 -7 0 -10 -7 -6 -15 3 -9 0 -15
-10 -15 -8 0 -12 -4 -9 -10 3 -5 1 -10 -5 -10 -6 0 -8 -5 -4 -11 3 -6 -5 -23
-19 -37 -32 -35 -55 -77 -35 -67 7 3 4 -1 -6 -9 -11 -9 -16 -16 -12 -16 5 0 2
-8 -5 -17 -12 -15 -12 -16 1 -8 8 4 4 -4 -10 -20 -14 -16 -18 -25 -10 -21 9 5
8 2 -2 -7 -10 -8 -15 -17 -11 -20 3 -4 1 -7 -6 -7 -7 0 -9 -5 -6 -11 4 -6 0
-16 -10 -22 -9 -7 -17 -19 -18 -27 -2 -8 -7 -21 -11 -29 -7 -10 -5 -12 5 -7 8
5 8 2 -2 -6 -9 -7 -14 -19 -11 -27 3 -9 0 -11 -8 -6 -10 6 -12 4 -7 -8 3 -10
3 -17 -2 -17 -7 0 -11 -15 -12 -52 0 -10 -5 -18 -11 -18 -5 0 -7 -7 -4 -16 4
-10 2 -13 -6 -8 -8 5 -9 2 -5 -9 4 -10 1 -17 -5 -17 -6 0 -8 -3 -5 -7 4 -3 2
-12 -5 -20 -6 -7 -8 -16 -4 -20 3 -3 -2 -15 -11 -26 -13 -15 -14 -18 -3 -12
12 7 13 6 3 -7 -7 -8 -10 -18 -6 -21 3 -4 1 -7 -6 -7 -7 0 -10 -4 -6 -9 3 -5
1 -13 -5 -16 -6 -4 -8 -15 -5 -26 4 -11 2 -19 -5 -19 -7 0 -9 -8 -5 -20 4 -13
2 -20 -6 -20 -7 0 -9 -3 -6 -7 4 -3 1 -13 -6 -21 -10 -13 -9 -14 3 -7 12 7 13
6 3 -7 -7 -8 -10 -18 -6 -21 3 -4 1 -7 -5 -7 -6 0 -9 -11 -6 -24 2 -13 -2 -29
-11 -36 -8 -7 -12 -16 -9 -21 3 -5 1 -9 -5 -9 -5 0 -8 -9 -6 -20 2 -11 0 -20
-5 -20 -5 0 -7 -9 -5 -20 2 -11 -1 -20 -7 -20 -5 0 -7 -7 -4 -16 4 -9 1 -23
-5 -30 -6 -8 -9 -20 -6 -29 4 -8 2 -17 -3 -20 -4 -3 -7 -16 -5 -30 1 -14 -1
-25 -5 -25 -4 0 -6 -20 -5 -45 2 -25 0 -43 -5 -40 -4 2 -6 -9 -5 -25 1 -17 -1
-33 -6 -35 -4 -3 -6 -14 -4 -25 2 -11 0 -20 -5 -20 -4 0 -7 -23 -5 -50 2 -28
0 -48 -4 -45 -5 2 -7 -26 -6 -63 1 -37 -1 -71 -4 -77 -8 -13 -8 -386 -1 -390
4 -2 6 -25 5 -50 -1 -25 1 -48 5 -50 4 -3 6 -21 4 -40 -1 -19 1 -35 5 -35 5 0
7 -13 6 -30 -1 -16 1 -30 5 -30 5 0 7 -11 5 -25 -1 -14 1 -28 6 -30 4 -3 6
-19 4 -35 -2 -16 0 -32 5 -35 5 -3 7 -12 4 -19 -3 -8 0 -17 5 -21 6 -3 9 -11
6 -16 -4 -5 -2 -9 3 -9 5 0 8 -13 7 -30 -1 -16 1 -30 5 -30 4 0 6 -11 5 -25
-2 -14 1 -25 6 -25 5 0 7 -11 5 -25 -3 -14 -1 -25 4 -25 5 0 7 -7 4 -15 -4 -8
-2 -15 3 -15 5 0 10 -10 11 -22 4 -52 8 -77 14 -83 4 -4 4 -13 1 -21 -3 -8 0
-14 5 -14 6 0 9 -9 7 -20 -2 -11 1 -20 7 -20 6 0 8 -3 5 -7 -4 -3 -1 -13 6
-21 10 -13 9 -14 -2 -8 -10 7 -10 3 2 -15 8 -13 13 -32 12 -41 -2 -10 0 -18 4
-18 4 0 8 -6 9 -12 1 -19 9 -59 17 -88 4 -14 7 -30 7 -37 1 -7 8 -15 16 -18 8
-3 12 -11 9 -19 -3 -8 2 -24 10 -37 9 -12 11 -19 5 -15 -8 5 -10 2 -6 -8 3 -9
10 -16 16 -16 5 0 7 -4 3 -9 -3 -5 -1 -12 5 -16 6 -4 8 -11 5 -16 -4 -5 -2 -9
4 -9 6 0 8 -7 5 -15 -4 -8 -1 -15 6 -15 6 0 8 -4 5 -10 -3 -5 -1 -10 6 -10 7
0 9 -3 6 -7 -4 -3 1 -15 10 -26 13 -15 14 -18 3 -12 -9 5 -8 0 4 -13 11 -12
15 -22 11 -22 -5 0 0 -7 11 -16 10 -8 12 -12 4 -8 -8 5 -2 -9 14 -31 16 -21
23 -35 15 -31 -8 4 -6 1 3 -7 10 -8 15 -17 11 -20 -3 -4 -1 -7 6 -7 7 0 9 -4
6 -10 -3 -5 -1 -10 5 -10 6 0 8 -4 5 -10 -3 -5 -1 -10 5 -10 6 0 9 -4 6 -9 -3
-5 1 -12 9 -15 8 -3 15 -9 14 -13 -4 -21 2 -33 13 -27 6 4 8 3 5 -3 -4 -6 3
-23 15 -39 13 -16 16 -25 8 -20 -8 4 -7 1 2 -7 10 -8 15 -17 11 -20 -3 -4 -1
-7 6 -7 7 0 9 -4 6 -10 -3 -5 2 -10 11 -10 10 0 14 -3 11 -7 -4 -3 1 -15 10
-26 13 -15 14 -18 3 -13 -8 4 -4 -2 10 -14 14 -12 18 -19 10 -15 -12 5 -12 4
1 -7 9 -7 14 -19 12 -25 -3 -7 2 -16 11 -19 9 -3 13 -10 10 -15 -8 -14 16 -40
29 -32 6 4 8 0 4 -10 -3 -9 0 -18 9 -21 9 -3 12 -10 9 -16 -3 -5 1 -10 10 -10
9 0 13 -4 10 -10 -3 -5 5 -21 19 -35 14 -14 22 -25 18 -25 -3 0 4 -7 16 -16
12 -8 22 -21 22 -27 1 -7 12 -25 26 -42 15 -16 23 -24 19 -16 -6 10 -4 12 4 7
7 -5 10 -14 7 -22 -3 -9 4 -19 18 -26 14 -6 22 -16 20 -23 -3 -7 0 -16 7 -21
8 -5 10 -3 4 6 -5 9 -4 11 3 6 7 -4 12 -14 12 -22 0 -8 4 -13 9 -10 5 3 12 -6
15 -19 4 -14 10 -23 15 -21 5 3 17 -4 27 -17 19 -21 19 -21 -1 -7 -11 8 -2 -4
20 -27 22 -22 43 -38 47 -36 4 2 5 -2 3 -10 -3 -7 5 -22 17 -33 l23 -19 -20
25 c-17 22 -18 23 -1 10 10 -8 22 -24 27 -37 6 -16 13 -21 25 -16 11 4 15 2
11 -4 -3 -5 8 -23 26 -39 18 -17 25 -20 17 -8 -8 11 -3 7 12 -8 15 -15 33 -28
38 -28 6 0 8 -4 5 -10 -3 -5 1 -10 9 -10 8 0 18 -5 22 -12 5 -7 3 -8 -6 -3 -9
5 -11 4 -6 -3 4 -7 14 -12 22 -12 8 0 13 -4 10 -9 -3 -5 10 -16 29 -25 19 -9
35 -19 35 -22 0 -3 -5 -2 -12 2 -7 4 -8 3 -4 -4 4 -7 14 -12 22 -12 8 0 14 -5
14 -11 0 -5 5 -7 10 -4 6 3 10 -1 10 -10 0 -9 5 -13 10 -10 6 3 13 0 16 -9 3
-9 12 -12 21 -9 10 4 14 2 10 -4 -4 -6 1 -17 10 -24 14 -12 16 -12 9 1 -4 9
-2 8 7 -2 8 -10 17 -15 20 -11 4 3 7 -2 7 -12 0 -10 3 -15 7 -12 3 4 13 -2 21
-14 7 -11 19 -18 25 -16 6 2 19 -5 29 -15 10 -10 23 -16 27 -13 5 2 11 -4 14
-15 3 -13 11 -18 20 -14 8 3 18 0 23 -7 5 -8 3 -10 -6 -4 -9 5 -11 4 -6 -4 4
-7 13 -10 19 -8 6 2 19 -5 29 -15 10 -10 23 -16 28 -13 6 4 10 -1 10 -9 0 -10
6 -13 17 -9 10 4 14 2 10 -4 -8 -12 20 -26 34 -17 5 3 9 -3 9 -12 0 -10 3 -14
7 -11 3 4 15 -1 26 -10 11 -10 17 -12 13 -5 -7 11 -4 12 13 3 11 -7 21 -16 21
-22 0 -6 4 -7 10 -4 5 3 10 1 10 -5 0 -6 4 -8 10 -5 6 3 10 1 10 -6 0 -7 3 -9
7 -6 3 4 17 0 31 -9 18 -12 23 -12 17 -3 -3 8 0 6 8 -3 8 -10 17 -15 20 -11 4
3 7 0 7 -7 0 -7 3 -10 7 -7 3 4 15 -1 26 -10 15 -13 18 -14 12 -3 -4 8 4 4 20
-10 16 -14 25 -18 20 -10 -5 8 3 5 17 -8 17 -15 31 -20 43 -16 13 5 16 4 11
-4 -6 -10 15 -17 28 -9 2 1 14 -7 27 -18 12 -11 19 -14 15 -7 -7 11 -4 12 12
3 12 -6 24 -15 27 -21 3 -5 12 -7 20 -3 8 3 15 0 15 -7 0 -7 7 -10 16 -6 10 4
13 2 8 -6 -5 -8 -2 -9 9 -5 9 3 19 2 23 -4 3 -6 13 -8 21 -5 9 4 11 2 7 -6 -5
-8 -2 -9 11 -4 11 4 25 0 37 -10 10 -10 21 -14 25 -11 3 4 12 2 20 -4 7 -6 13
-9 13 -5 0 4 12 0 28 -7 15 -8 35 -13 45 -12 9 2 17 -1 17 -6 0 -5 3 -8 8 -8
4 1 9 0 12 -1 3 -1 14 -3 25 -5 37 -7 50 -11 64 -19 10 -7 12 -5 6 5 -5 8 1 6
13 -4 11 -11 25 -16 31 -13 5 4 13 1 16 -5 4 -5 14 -8 22 -5 8 3 24 1 35 -5
16 -9 19 -8 13 2 -6 9 -4 10 6 3 8 -5 17 -9 22 -10 4 -1 8 -3 10 -4 1 -1 13
-3 27 -4 14 0 30 -4 35 -7 6 -3 25 -5 43 -3 18 1 30 -1 27 -6 -3 -5 18 -7 45
-6 28 2 53 0 55 -5 3 -4 25 -6 50 -4 25 1 45 -1 45 -4 0 -8 452 -8 465 0 6 4
25 6 43 4 17 -1 32 2 32 6 0 4 16 5 35 3 19 -1 37 1 40 6 3 5 14 7 25 5 12 -2
18 0 15 5 -3 5 10 7 30 6 19 -2 35 0 35 4 0 4 16 6 35 4 20 -1 34 0 31 4 -2 4
12 8 32 10 73 5 82 6 82 12 0 5 23 9 73 11 9 0 17 5 17 10 0 5 12 6 26 3 20
-5 25 -4 20 5 -5 8 0 10 18 7 14 -3 26 -1 26 4 0 5 9 7 19 5 11 -2 22 3 25 11
3 8 15 12 28 10 13 -2 32 4 42 13 11 9 16 10 12 4 -5 -9 -2 -11 8 -7 9 3 16
10 16 14 0 5 9 7 20 5 11 -2 20 0 20 4 0 4 7 8 15 9 8 1 22 3 30 4 8 1 15 5
15 9 0 4 7 10 16 13 10 4 13 2 8 -6 -4 -7 8 -1 26 12 18 13 30 17 25 9 -8 -12
-6 -12 8 0 9 7 17 10 17 5 0 -4 6 1 14 12 8 10 18 16 22 12 4 -4 13 -3 21 3 7
6 13 8 13 3 0 -4 7 1 16 12 8 10 12 12 8 4 -7 -13 -5 -13 9 -1 9 7 17 10 17 5
0 -4 7 1 16 12 8 10 12 12 8 4 -4 -8 5 -4 21 10 16 14 24 18 20 11 -5 -8 7 -4
25 9 19 13 30 18 26 9 -4 -7 -1 -6 7 3 8 10 17 15 21 11 3 -4 13 2 22 13 8 10
12 12 8 4 -4 -8 5 -4 21 10 16 14 25 18 21 10 -4 -8 2 -4 14 10 12 14 18 18
14 10 -4 -8 5 -4 21 10 16 14 25 18 21 10 -4 -8 0 -6 8 4 9 11 16 17 16 13 0
-4 9 2 20 13 12 12 25 18 29 15 5 -2 12 2 15 11 3 8 10 12 16 9 5 -3 10 -1 10
5 0 6 5 8 10 5 6 -3 10 -1 10 6 0 7 3 10 6 6 4 -3 14 2 23 11 9 10 14 13 11 7
-3 -6 2 -3 11 7 9 9 19 14 23 11 3 -4 6 -1 6 5 0 6 9 14 20 17 11 4 17 11 14
17 -4 6 -1 9 7 6 7 -2 20 3 29 13 8 10 22 19 29 21 8 2 26 15 39 30 13 16 39
35 58 44 18 9 31 20 28 25 -3 5 -1 9 5 9 6 0 20 10 32 23 12 12 19 16 15 10
-4 -7 -5 -13 -1 -13 3 0 10 12 15 26 6 16 16 24 24 21 14 -6 66 44 66 62 0 6
5 13 12 17 7 5 8 3 3 -5 -6 -10 -3 -11 14 -2 11 7 21 14 21 17 0 3 -5 2 -12
-2 -7 -4 -8 -3 -4 4 4 7 13 12 21 12 8 0 17 5 21 12 5 7 3 8 -6 3 -9 -5 -11
-4 -6 3 4 7 13 12 21 12 8 0 17 5 21 12 5 7 3 8 -6 3 -9 -5 -11 -4 -6 3 4 7
14 12 22 12 8 0 12 4 9 10 -3 5 0 10 8 10 8 0 21 8 28 17 12 14 12 16 0 8 -10
-5 -12 -4 -7 3 4 7 14 12 22 12 8 0 12 5 9 10 -3 6 1 10 10 10 9 0 13 5 10 10
-3 6 0 10 8 10 8 0 21 8 28 17 12 14 12 16 0 8 -10 -5 -12 -4 -7 3 4 7 14 12
22 12 8 0 12 5 9 10 -3 6 -1 10 4 10 6 0 11 8 11 17 0 9 3 14 6 10 8 -8 54 34
54 50 0 8 5 11 10 8 6 -3 10 -1 10 4 0 6 11 21 25 33 14 12 23 28 20 36 -2 7
0 10 5 7 6 -3 10 1 10 9 0 9 11 23 25 32 14 9 35 31 47 48 20 28 20 30 3 16
-11 -8 -1 5 23 29 24 24 41 50 38 57 -2 6 5 14 16 17 14 4 19 11 15 21 -4 10
-1 16 9 16 8 0 12 5 9 10 -3 6 -1 10 5 10 6 0 8 5 5 10 -3 6 -2 10 4 10 6 0
15 10 22 21 9 17 8 20 -3 14 -7 -4 -2 3 12 16 14 13 26 31 28 39 2 8 9 18 15
22 7 4 8 8 2 8 -7 0 -7 3 0 8 18 13 42 47 27 38 -11 -7 -12 -4 -3 13 7 11 14
21 17 21 3 0 2 -4 -1 -10 -3 -5 -4 -10 -1 -10 3 0 10 10 17 21 7 15 8 19 0 15
-7 -5 -9 -1 -5 8 3 9 10 14 14 11 9 -5 22 24 17 37 -1 4 7 13 17 21 11 8 16
19 12 25 -4 7 -3 12 2 12 6 0 13 7 16 16 4 10 2 13 -7 8 -6 -4 -1 5 13 21 14
16 18 24 10 20 -11 -6 -10 -3 3 12 9 11 14 23 10 26 -3 4 -1 7 5 7 6 0 9 7 6
15 -4 8 -1 15 6 15 6 0 8 5 5 10 -3 6 -1 10 5 10 7 0 10 7 6 15 -3 8 -1 15 5
15 6 0 7 5 4 11 -4 5 0 18 9 28 9 10 16 22 14 27 -1 5 4 20 11 33 11 19 11 22
-1 15 -8 -4 -7 0 3 12 9 10 14 25 12 32 -3 6 1 12 7 12 7 0 10 7 7 15 -4 8 -2
17 4 21 6 3 8 12 5 20 -3 8 -2 14 2 14 7 0 11 16 14 58 1 6 6 12 11 12 6 0 7
3 4 6 -3 4 -2 16 4 27 9 15 8 18 -3 11 -10 -6 -11 -5 -1 8 7 8 10 18 6 21 -3
4 -1 7 6 7 8 0 11 6 7 16 -3 8 -1 25 5 36 9 16 8 19 -2 13 -8 -6 -10 -4 -3 6
10 17 15 36 17 67 0 12 4 22 7 22 7 0 8 4 14 55 2 17 5 32 6 35 1 3 2 8 1 13
0 4 4 7 10 7 5 0 8 4 4 9 -3 5 -1 12 5 16 5 3 8 19 5 36 -3 16 -1 29 4 29 6 0
8 16 6 34 -3 19 0 38 5 41 6 4 8 11 5 16 -4 5 -2 9 4 9 5 0 8 8 6 18 -1 9 0
22 4 27 10 17 8 109 -4 120 -13 14 -1467 15 -1477 1 -3 -5 -5 -18 -3 -28 2
-10 -1 -18 -6 -18 -6 0 -7 -5 -4 -10 3 -5 1 -10 -5 -10 -7 0 -10 -7 -6 -15 3
-8 1 -15 -4 -15 -5 0 -7 -11 -4 -25 2 -14 0 -25 -6 -25 -6 0 -8 -13 -5 -30 3
-16 1 -30 -4 -30 -6 0 -8 -9 -6 -20 2 -11 0 -20 -5 -20 -4 0 -7 -11 -5 -25 1
-14 -2 -25 -7 -25 -5 0 -6 -4 -3 -10 3 -5 1 -19 -6 -31 -9 -17 -8 -20 3 -13
11 6 11 5 -1 -9 -7 -9 -10 -17 -6 -17 4 0 2 -7 -5 -15 -7 -8 -9 -15 -5 -15 4
0 2 -6 -4 -14 -6 -7 -8 -22 -4 -31 4 -12 3 -16 -4 -12 -7 4 -10 0 -9 -10 2
-10 -4 -28 -12 -41 -8 -12 -11 -22 -7 -22 4 0 1 -8 -6 -17 -12 -14 -12 -16 1
-9 8 4 6 0 -4 -8 -11 -9 -16 -16 -12 -16 5 0 2 -8 -5 -17 -10 -12 -11 -15 -1
-9 7 4 4 -7 -7 -25 -11 -18 -18 -36 -15 -41 3 -4 0 -8 -6 -8 -6 0 -9 -4 -5 -9
3 -5 1 -12 -5 -16 -6 -4 -8 -10 -5 -15 3 -4 -2 -11 -11 -14 -8 -3 -12 -10 -9
-16 3 -5 1 -10 -5 -10 -6 0 -8 -4 -5 -10 3 -5 1 -10 -4 -10 -6 0 -11 -5 -11
-11 0 -6 -10 -25 -22 -42 -12 -17 -16 -27 -8 -22 8 5 5 -4 -8 -19 -12 -16 -22
-35 -22 -42 0 -8 -6 -13 -12 -11 -8 1 -12 -6 -10 -17 2 -12 -1 -16 -9 -10 -9
5 -10 2 -6 -9 4 -11 1 -17 -8 -17 -7 0 -17 -5 -21 -12 -5 -7 -2 -9 7 -4 8 4 3
-2 -10 -13 -13 -12 -19 -21 -15 -21 5 0 1 -5 -9 -11 -9 -6 -15 -15 -11 -20 3
-5 0 -8 -8 -7 -7 2 -12 -3 -11 -9 2 -7 -4 -13 -13 -13 -8 0 -13 -4 -10 -9 3
-5 -2 -15 -11 -22 -14 -12 -16 -12 -9 1 4 8 -3 2 -16 -15 -13 -16 -31 -37 -40
-47 -9 -9 -14 -19 -11 -21 2 -3 -5 -8 -16 -12 -12 -3 -21 -13 -21 -21 0 -8 -3
-13 -7 -11 -10 5 -43 -30 -35 -37 3 -3 0 -6 -6 -6 -6 0 -23 -12 -38 -27 -15
-16 -21 -19 -13 -8 13 18 13 19 -3 6 -10 -7 -18 -19 -18 -27 0 -7 -5 -16 -12
-20 -7 -5 -8 -3 -3 7 8 12 6 12 -8 0 -9 -7 -15 -17 -12 -21 3 -4 -2 -11 -11
-14 -10 -4 -13 -2 -8 7 3 6 -6 -1 -21 -18 -14 -16 -23 -23 -19 -15 7 13 5 13
-9 1 -9 -7 -15 -17 -12 -21 3 -4 -2 -11 -11 -14 -10 -4 -13 -2 -8 7 3 6 -4 1
-17 -13 -13 -14 -19 -19 -14 -11 6 10 0 8 -16 -4 -15 -11 -25 -24 -22 -29 3
-5 0 -6 -8 -4 -8 3 -20 -2 -27 -11 -11 -13 -12 -13 -6 -1 4 8 -4 5 -18 -8 -13
-12 -28 -19 -31 -15 -4 3 -7 0 -7 -7 0 -7 -3 -10 -7 -7 -3 4 -12 -1 -20 -11
-8 -9 -12 -11 -8 -5 4 9 1 11 -9 7 -9 -3 -14 -10 -11 -15 3 -4 -4 -6 -15 -4
-11 2 -20 -1 -20 -6 0 -6 -5 -7 -10 -4 -6 3 -13 0 -16 -9 -3 -9 -12 -12 -21
-9 -12 5 -14 3 -8 -7 6 -10 4 -12 -8 -7 -9 3 -19 2 -22 -4 -4 -5 -11 -7 -16
-4 -5 4 -9 1 -9 -6 0 -7 -3 -9 -7 -6 -3 4 -15 -1 -26 -10 -15 -13 -18 -14 -12
-3 7 12 6 13 -7 3 -8 -7 -18 -10 -21 -6 -4 3 -7 0 -7 -7 0 -7 -3 -10 -7 -7 -3
4 -12 2 -20 -4 -7 -6 -13 -8 -13 -4 0 4 -7 2 -15 -5 -8 -6 -19 -9 -25 -5 -5 3
-10 1 -10 -5 0 -6 -5 -8 -10 -5 -6 4 -22 -1 -37 -10 -17 -12 -23 -13 -17 -4 6
11 5 12 -8 2 -8 -7 -18 -10 -21 -6 -4 3 -7 2 -7 -4 0 -6 -11 -9 -25 -8 -14 2
-25 -1 -25 -5 0 -5 -9 -7 -20 -5 -11 2 -22 0 -25 -4 -2 -5 -18 -7 -35 -6 -16
1 -30 0 -30 -4 0 -4 -34 -6 -75 -6 -41 1 -75 -2 -75 -5 0 -10 -144 -5 -159 5
-10 6 -12 4 -6 -6 7 -11 6 -12 -6 -3 -8 7 -27 11 -44 9 -16 -1 -34 1 -40 5 -5
4 -23 7 -40 5 -16 -1 -34 1 -40 4 -10 6 -18 7 -95 15 -25 2 -46 5 -47 6 -2 2
-12 4 -23 5 -11 1 -23 4 -27 5 -5 1 -11 2 -15 1 -5 0 -8 3 -8 8 0 5 -8 8 -17
6 -10 -1 -29 4 -42 12 -18 12 -22 12 -16 2 5 -8 -2 -5 -15 6 -15 13 -21 15
-16 5 4 -8 0 -6 -8 4 -9 11 -16 16 -16 12 0 -5 -8 -2 -17 5 -15 12 -16 12 -8
-1 6 -11 3 -10 -12 3 -11 9 -23 14 -26 10 -4 -3 -16 2 -27 12 -11 10 -23 15
-27 12 -3 -4 -15 1 -26 10 -15 13 -18 14 -12 3 4 -8 -3 -5 -16 6 -13 12 -32
20 -42 19 -10 -2 -14 1 -10 8 4 6 0 8 -10 4 -9 -3 -18 0 -21 9 -3 9 -10 12
-16 9 -5 -3 -10 -1 -10 5 0 6 -4 8 -10 5 -6 -3 -10 -1 -10 6 0 7 -3 9 -7 6 -3
-4 -11 0 -17 8 -6 8 -21 16 -33 18 -12 2 -26 7 -30 12 -5 4 -2 5 6 0 9 -5 12
-4 7 3 -4 7 -14 12 -22 12 -8 0 -14 5 -14 11 0 5 -16 17 -35 25 -19 8 -35 19
-35 25 0 5 -4 8 -9 5 -5 -3 -12 1 -15 10 -3 8 -10 13 -15 10 -5 -3 -11 4 -14
15 -4 14 -11 20 -20 16 -10 -4 -17 2 -20 15 -4 14 -11 19 -22 14 -9 -3 -13 -2
-10 4 3 6 -1 10 -10 10 -9 0 -13 5 -10 10 3 6 -1 10 -10 10 -9 0 -14 4 -11 9
3 5 -1 12 -10 15 -8 3 -13 10 -10 15 3 5 -2 15 -11 22 -14 12 -16 12 -8 0 5
-10 4 -12 -3 -7 -7 4 -12 14 -12 22 0 8 -11 19 -25 24 -14 5 -25 12 -25 15 0
4 5 3 12 -1 7 -4 8 -3 4 4 -4 7 -14 12 -22 12 -8 0 -12 5 -9 11 4 6 -2 13 -14
16 -13 3 -20 12 -19 22 2 10 -3 15 -12 13 -8 -2 -12 0 -7 4 4 4 -3 19 -15 32
-13 14 -17 22 -9 17 9 -5 12 -4 7 3 -4 7 -14 12 -23 12 -9 0 -13 6 -9 15 3 9
0 15 -10 15 -8 0 -12 5 -9 10 3 6 -1 13 -9 16 -9 3 -13 10 -10 15 3 5 0 9 -6
9 -6 0 -8 5 -5 10 3 6 -1 10 -9 10 -9 0 -13 6 -10 14 3 8 -4 20 -15 28 -12 8
-18 18 -15 21 4 4 0 9 -9 13 -9 3 -14 14 -12 25 2 10 -1 19 -6 19 -6 0 -8 4
-5 9 4 5 1 11 -6 13 -6 2 -13 15 -15 28 -2 13 -9 28 -16 32 -6 4 -8 8 -3 8 6
0 5 5 -1 11 -6 6 -9 18 -6 25 3 8 0 14 -6 14 -6 0 -8 7 -4 17 5 12 3 14 -7 8
-10 -6 -12 -4 -6 10 4 11 0 26 -11 38 -13 14 -13 18 -3 12 13 -8 13 -6 2 8 -8
9 -11 21 -8 26 4 5 2 12 -4 16 -6 4 -8 11 -5 16 4 5 1 9 -5 9 -6 0 -8 5 -5 10
3 6 1 10 -5 10 -7 0 -10 7 -6 15 3 8 1 15 -5 15 -6 0 -7 5 -4 10 3 5 2 10 -3
10 -6 0 -8 10 -4 22 4 15 2 19 -7 13 -10 -5 -11 -2 -6 14 3 11 2 21 -3 21 -5
0 -8 12 -7 28 1 15 -1 31 -4 37 -10 19 -9 84 3 88 6 2 660 3 1454 3 793 -1
1443 1 1443 4 1 3 2 311 3 685 l1 680 -1452 -1 c-799 0 -1454 2 -1454 5 -7 27
-3 69 5 64 5 -4 7 1 3 10 -3 10 -3 17 2 17 7 0 9 7 13 50 1 11 6 20 11 20 4 0
5 5 2 11 -4 5 1 19 10 29 9 10 14 24 10 29 -3 6 -2 11 4 11 6 0 8 6 5 14 -3 8
-1 17 5 20 6 4 7 14 4 23 -5 12 -3 14 7 8 10 -6 12 -4 7 8 -3 9 -2 19 4 22 5
4 7 11 4 16 -4 5 -1 9 5 9 6 0 8 5 5 11 -4 6 0 16 10 22 9 7 17 19 19 27 6 38
29 90 38 90 6 0 8 3 5 7 -4 4 5 20 20 37 16 17 21 26 13 21 -9 -6 -7 -2 3 8
11 9 16 17 11 17 -4 0 1 7 12 16 10 8 12 13 4 9 -8 -4 -4 3 10 15 14 12 18 19
10 15 -8 -4 -4 3 10 15 14 12 18 19 10 15 -8 -4 -4 3 10 15 14 12 19 19 12 15
-11 -6 -11 -3 -1 13 7 12 15 19 18 17 6 -7 71 88 65 96 -2 4 1 11 7 15 8 5 9
3 4 -7 -8 -12 -6 -12 8 0 9 7 17 19 17 26 0 7 8 19 18 26 16 13 16 12 3 -6 -9
-13 -5 -11 11 5 14 14 23 28 21 33 -2 4 3 10 11 13 9 3 13 10 10 15 -3 5 1 9
8 9 8 0 20 9 28 19 7 11 17 18 22 15 4 -3 8 2 8 10 0 8 5 18 12 22 7 5 8 3 3
-6 -5 -9 -4 -11 3 -6 7 4 12 14 12 21 0 8 6 12 14 9 9 -3 22 5 32 21 9 14 19
24 21 21 3 -3 16 7 30 22 14 15 19 18 12 8 -12 -16 -8 -16 19 4 31 23 45 39
20 24 -7 -4 -8 -3 -4 4 4 7 14 12 22 12 8 0 14 5 14 11 0 5 5 7 10 4 6 -3 10
-2 10 4 0 6 10 15 21 22 17 9 20 8 14 -3 -5 -7 3 -3 17 10 13 12 28 19 31 15
4 -3 7 -1 7 6 0 7 5 9 10 6 6 -3 10 1 10 10 0 9 6 15 13 12 6 -2 25 5 41 16
19 14 27 16 22 6 -6 -11 -5 -11 6 1 7 8 20 16 28 18 8 2 18 9 22 15 4 7 8 8 8
3 0 -5 6 -3 13 3 8 6 17 8 20 4 4 -3 7 0 7 7 0 7 3 10 7 7 3 -4 15 1 26 10 15
13 18 14 12 3 -5 -9 1 -7 15 5 13 11 20 14 16 8 -5 -9 -2 -11 8 -7 9 3 16 10
16 16 0 5 4 7 9 3 5 -3 12 -1 16 4 3 6 12 8 20 4 8 -3 15 1 15 8 0 7 3 9 6 6
4 -3 16 -1 28 5 23 13 42 19 66 20 8 0 20 4 25 7 6 4 22 7 38 6 15 0 27 2 27
5 0 4 12 6 28 5 15 -1 32 1 37 4 6 3 17 6 25 6 8 0 21 4 29 9 11 7 12 6 6 -5
-7 -11 -6 -12 6 -3 8 6 38 10 67 9 28 -1 52 1 52 4 0 10 203 7 219 -3 10 -7
12 -5 6 5 -7 11 -6 12 6 3 8 -6 25 -10 39 -9 14 1 33 -2 44 -7 14 -8 17 -7 10
4 -6 10 -5 11 7 2 8 -6 22 -10 32 -9 9 2 17 -1 17 -6 0 -5 14 -7 30 -4 19 3
30 1 30 -6 0 -6 6 -9 14 -6 7 3 19 0 26 -6 10 -9 11 -9 5 3 -6 12 -5 12 5 3 7
-6 19 -9 28 -6 11 5 13 3 7 -7 -6 -10 -4 -12 8 -7 9 3 19 2 23 -4 3 -6 12 -8
19 -5 7 2 18 -1 25 -7 10 -9 11 -9 5 2 -5 9 1 7 19 -4 14 -10 26 -14 26 -10 0
4 8 1 17 -6 15 -12 16 -12 8 1 -5 9 0 8 13 -4 12 -11 22 -15 22 -11 0 4 10 0
22 -11 13 -12 18 -13 13 -4 -6 11 -3 10 12 -3 11 -9 23 -14 26 -10 4 3 7 1 7
-6 0 -7 4 -10 9 -6 5 3 16 -1 24 -9 8 -8 18 -12 22 -8 3 4 11 -1 16 -10 5 -10
18 -15 29 -13 11 2 18 0 15 -4 -3 -5 2 -12 11 -15 8 -3 12 -2 9 4 -3 6 1 7 10
4 9 -4 13 -9 10 -12 -2 -3 4 -12 16 -20 11 -8 23 -12 26 -8 3 3 14 -5 25 -17
11 -12 17 -16 13 -9 -11 21 5 13 32 -15 15 -16 22 -21 18 -13 -5 8 18 -7 50
-35 33 -27 53 -41 46 -30 -8 11 2 3 22 -18 23 -25 41 -36 49 -31 7 4 10 4 6 0
-10 -11 25 -43 41 -38 8 3 12 1 8 -4 -6 -11 85 -104 102 -104 6 0 15 -9 21
-20 6 -11 8 -20 5 -20 -3 0 4 -9 15 -20 11 -11 24 -20 29 -20 6 0 13 -5 17
-12 5 -7 2 -9 -7 -4 -8 4 -4 -1 8 -12 12 -11 21 -21 19 -23 -2 -2 6 -13 17
-24 11 -11 16 -14 12 -6 -5 10 -4 12 4 7 6 -4 9 -11 6 -16 -3 -4 7 -22 23 -38
15 -17 28 -36 30 -44 2 -7 10 -18 17 -24 8 -6 12 -14 8 -17 -3 -4 0 -7 7 -7 7
0 11 -3 7 -6 -3 -4 2 -14 11 -23 11 -10 12 -12 2 -6 -8 5 -1 -6 15 -24 17 -19
23 -31 15 -27 -13 7 -13 6 0 -6 25 -22 62 -79 56 -85 -3 -3 2 -12 12 -20 9 -8
11 -11 4 -8 -11 6 -11 3 0 -14 7 -12 16 -21 20 -21 5 0 8 -7 8 -15 0 -8 4 -15
10 -15 5 0 7 -6 4 -14 -3 -8 0 -17 5 -21 6 -3 9 -11 5 -16 -3 -6 2 -20 13 -31
12 -14 13 -19 3 -13 -9 5 -7 -1 5 -15 11 -13 14 -20 6 -15 -10 6 -12 4 -5 -6
9 -14 14 -34 16 -56 1 -7 5 -13 9 -13 4 0 6 -9 4 -20 -2 -11 1 -20 6 -20 6 0
7 -4 4 -10 -3 -5 2 -21 11 -35 9 -14 13 -25 9 -25 -3 0 3 -13 14 -29 11 -15
18 -31 14 -34 -3 -4 0 -14 8 -24 12 -15 12 -16 -1 -8 -12 7 -13 6 -4 -6 6 -8
10 -26 9 -41 -1 -16 1 -28 5 -28 3 0 7 -10 7 -22 3 -58 12 -101 23 -112 10 -8
11 -8 5 4 -7 12 -6 13 6 4 21 -15 1424 -13 1440 3 12 12 20 143 9 143 -4 0 -6
20 -5 45 2 25 0 43 -4 40 -5 -2 -7 12 -5 33 1 20 -2 42 -7 48 -5 6 -6 21 -4
34 3 13 -3 36 -12 50 -10 14 -18 33 -19 43 -1 9 -2 18 -4 20 -2 2 -9 39 -12
65 -1 6 -5 12 -9 12 -4 0 -6 9 -4 20 2 11 0 20 -5 20 -4 0 -11 7 -14 16 -4 10
-2 13 7 8 8 -5 7 -2 -2 9 -7 9 -10 17 -6 17 4 0 0 12 -10 26 -11 18 -13 24 -4
19 11 -6 11 -5 2 5 -6 7 -9 19 -6 28 4 10 2 13 -5 8 -8 -5 -10 -2 -6 8 3 9 2
16 -4 16 -6 0 -9 12 -7 26 1 14 -3 28 -11 31 -7 2 -10 11 -8 18 3 7 1 16 -5
20 -6 3 -11 15 -11 26 0 11 -4 18 -9 14 -6 -3 -8 4 -6 15 2 11 -1 20 -6 20 -6
0 -8 4 -5 9 4 5 2 11 -4 13 -5 1 -11 13 -13 25 -2 12 -7 26 -12 30 -4 5 -5 2
0 -6 6 -10 4 -12 -4 -7 -7 5 -10 14 -7 22 3 8 1 14 -5 14 -6 0 -7 5 -4 10 3 6
1 10 -5 10 -6 0 -8 5 -5 11 4 6 -1 17 -11 25 -11 9 -13 13 -4 9 12 -5 12 -4
-1 7 -9 7 -14 19 -12 25 3 7 -2 16 -11 19 -9 3 -14 10 -11 14 8 13 -15 61 -44
94 -14 16 -19 25 -11 21 10 -5 8 -1 -4 13 -11 12 -15 22 -11 22 5 0 0 7 -11
16 -10 8 -12 12 -4 8 8 -4 4 5 -9 19 -14 15 -20 27 -15 27 5 0 0 7 -10 15 -11
8 -16 15 -11 15 5 0 0 7 -11 16 -10 8 -13 13 -6 9 7 -3 1 11 -13 32 -27 38
-45 59 -30 34 5 -10 4 -12 -4 -7 -6 4 -10 15 -9 24 2 9 -3 16 -10 14 -6 -1
-11 1 -10 5 2 13 -18 54 -27 56 -6 1 -9 7 -7 14 1 6 -3 15 -9 19 -8 5 -9 3 -4
-6 5 -9 4 -11 -3 -6 -7 4 -12 14 -12 22 0 9 -10 25 -22 36 -13 11 -16 16 -8
13 8 -4 4 3 -10 16 -14 13 -19 20 -10 14 13 -9 13 -8 1 8 -7 9 -20 17 -28 17
-8 0 -11 5 -8 10 3 6 2 10 -4 10 -5 0 -13 9 -16 20 -4 11 -11 18 -16 15 -5 -4
-9 1 -9 10 0 8 -7 18 -15 21 -8 4 -12 10 -9 15 3 5 0 9 -6 9 -6 0 -8 5 -5 10
3 6 2 10 -2 10 -5 0 -18 7 -29 16 -10 8 -12 12 -4 8 13 -7 13 -5 1 9 -7 9 -17
14 -22 11 -5 -3 -9 2 -9 10 0 8 -5 18 -12 22 -7 5 -8 3 -3 -6 5 -9 4 -11 -3
-6 -7 4 -12 13 -12 20 0 17 -83 106 -98 106 -7 0 -10 5 -7 10 3 6 0 10 -8 10
-8 0 -22 10 -33 23 l-19 22 25 -20 25 -20 -19 23 c-11 12 -25 22 -32 22 -7 0
-16 5 -20 12 -5 7 -3 8 6 3 9 -5 11 -4 6 3 -4 7 -16 12 -26 12 -10 0 -22 5
-26 12 -5 7 -3 8 7 3 8 -5 5 1 -5 13 -20 23 -32 30 -21 12 3 -5 4 -10 0 -10
-3 0 -10 11 -15 25 -5 14 -15 25 -22 25 -8 0 -29 18 -48 39 -18 22 -37 38 -42
35 -4 -3 -8 2 -8 10 0 9 -8 16 -19 16 -11 0 -23 5 -27 12 -5 7 -2 9 7 4 8 -4
5 0 -5 8 -11 9 -26 16 -35 16 -8 0 -11 3 -8 6 6 6 -47 50 -107 88 -18 11 -25
13 -20 5 6 -11 5 -11 -9 0 -10 8 -15 16 -13 19 9 9 -38 40 -53 34 -8 -3 -12
-1 -8 4 3 6 -3 16 -15 23 -16 10 -19 10 -13 -1 3 -7 0 -5 -8 4 -8 10 -17 15
-20 11 -4 -3 -7 0 -7 7 0 7 -3 10 -7 7 -3 -4 -11 0 -17 8 -6 8 -21 16 -33 18
-12 2 -26 7 -30 12 -5 4 -2 5 6 0 9 -5 12 -4 7 3 -4 7 -16 12 -27 12 -10 0
-19 5 -19 10 0 6 -7 10 -15 10 -8 0 -15 5 -15 11 0 5 -5 7 -11 4 -6 -4 -17 1
-24 11 -8 11 -15 15 -15 10 0 -5 -10 -1 -22 10 -13 12 -18 13 -13 4 6 -11 3
-10 -12 3 -11 9 -23 14 -26 10 -4 -3 -7 2 -7 11 0 12 -5 16 -15 12 -8 -3 -15
-1 -15 4 0 5 -10 14 -21 21 -17 9 -20 8 -14 -3 3 -7 -1 -4 -9 6 -9 11 -16 16
-16 12 0 -5 -6 -3 -13 3 -8 6 -17 8 -20 5 -3 -3 -23 7 -43 22 -21 16 -34 22
-29 14 8 -13 7 -13 -8 -1 -9 7 -17 10 -17 5 0 -5 -5 -1 -11 9 -7 12 -17 16
-31 11 -15 -4 -18 -3 -13 7 6 9 2 11 -13 7 -14 -4 -20 -2 -15 5 4 6 0 8 -10 4
-9 -3 -19 -2 -22 4 -4 5 -11 7 -16 4 -5 -4 -9 -1 -9 6 0 7 -3 10 -6 6 -4 -3
-20 1 -36 9 -16 8 -33 12 -38 9 -6 -3 -10 -1 -10 5 0 6 -4 8 -10 5 -5 -3 -10
-1 -10 6 0 7 -3 9 -7 6 -3 -4 -13 -1 -21 6 -13 10 -14 9 -8 -2 6 -8 0 -7 -18
4 -14 10 -26 14 -26 10 0 -4 -6 -2 -13 4 -8 6 -17 8 -20 4 -4 -3 -7 -1 -7 5 0
6 -9 9 -20 7 -11 -2 -22 0 -25 5 -3 5 -14 7 -25 5 -11 -2 -20 0 -20 5 0 4 -11
7 -25 6 -13 -2 -22 1 -19 6 3 5 -6 7 -19 4 -14 -2 -28 -2 -31 2 -8 7 -33 13
-63 15 -13 0 -23 4 -23 8 0 3 -11 7 -25 8 -14 1 -36 2 -50 3 -14 1 -25 5 -25
9 0 4 -12 7 -27 8 -16 0 -56 2 -90 3 -35 1 -63 5 -63 8 0 3 -24 7 -52 8 -69 2
-201 10 -258 15 -25 3 -51 0 -59 -7 -11 -8 -13 -8 -7 2 8 13 4 16 -8 5z m2495
-1080 c13 -16 12 -17 -3 -4 -10 7 -18 15 -18 17 0 8 8 3 21 -13z m-5071 -297
c0 -2 -8 -10 -17 -17 -16 -13 -17 -12 -4 4 13 16 21 21 21 13z m3921 -473 c13
-16 12 -17 -3 -4 -17 13 -22 21 -14 21 2 0 10 -8 17 -17z m99 -3267 c0 -2 -8
-10 -17 -17 -16 -13 -17 -12 -4 4 13 16 21 21 21 13z m1320 -590 c0 -2 -8 -10
-17 -17 -16 -13 -17 -12 -4 4 13 16 21 21 21 13z"/>
<path d="M3864 5941 c-350 -97 -470 -542 -216 -804 187 -193 496 -194 688 -2
124 123 169 282 129 452 -63 266 -336 427 -601 354z"/>
<path d="M3864 3041 c-255 -73 -406 -339 -335 -593 99 -358 545 -476 807 -214
68 69 108 137 127 223 58 251 -62 477 -303 574 -74 29 -211 34 -296 10z"/>
<path d="M5989 1153 c-13 -16 -12 -17 4 -4 9 7 17 15 17 17 0 8 -8 3 -21 -13z"/>
</g>
</svg>
